<svg xmlns="http://www.w3.org/2000/svg" viewBox="0 0 1166.7 565.48"><g id="Layer_2" data-name="Layer 2"><g id="_àð_1" data-name="˜àð_1">
<path stroke="black" stroke-width="50" d="M1137.13,178.29h-22.19c-2.33-8.6-4.91-17.13-7.72-25.41a162.86,162.86,0,0,0-31.75-55.15c-3-3.48-30.69-34.53-78.19-53.29-23.78-9.38-73.28-18.79-147.11-28a2172.22,2172.22,0,0,0-533.65,0C242.84,25.6,193.34,35,169.39,44.44,121.87,63.23,94.22,94.26,91.26,97.69a162.76,162.76,0,0,0-31.78,55.18c-2.88,8.53-5.46,17-7.73,25.42H29.59A29.68,29.68,0,0,0,0,207.88V382.29a29.56,29.56,0,0,0,29.57,29.56h29a181.65,181.65,0,0,0,53.06,63.7A640.45,640.45,0,0,0,213.5,538.88c28.47,14,54.46,23.87,88.77,26.21,3.7.24,7.75.36,12.05.36A181.07,181.07,0,0,0,441.91,513.3l67.48-66.21a512.38,512.38,0,0,1,46.85-40.66,44.4,44.4,0,0,1,54.24,0,514.84,514.84,0,0,1,46.82,40.65L725,513.55a180.32,180.32,0,0,0,127.06,51.93c4.34,0,8.36-.12,11.81-.36l.6,0c34.21-2.33,60.2-12.16,88.71-26.21a639.81,639.81,0,0,0,101.87-63.32,181.5,181.5,0,0,0,53.09-63.71h28.94a29.59,29.59,0,0,0,29.59-29.59V207.85A29.57,29.57,0,0,0,1137.13,178.29Zm-1121,204V207.85a13.4,13.4,0,0,1,13.4-13.39H47.68A434.43,434.43,0,0,0,37.76,325c.81,11,2.1,22.22,3.81,33.46a182.4,182.4,0,0,0,9.85,37.25H29.59A13.46,13.46,0,0,1,16.17,382.26Zm1093-26.29a165.13,165.13,0,0,1-13.39,44.39l0,.08a165.24,165.24,0,0,1-50.39,62.21,623.57,623.57,0,0,1-99.29,61.73C919.27,537.57,895,546.8,863.51,549l-.6,0c-3.2.22-6.84.33-10.82.33A164.27,164.27,0,0,1,736.36,502l-67.74-66.48a530.43,530.43,0,0,0-48.29-41.91,60.56,60.56,0,0,0-73.94,0,526.76,526.76,0,0,0-48.32,41.93l-67.49,66.22a165,165,0,0,1-116.26,47.52c-3.95,0-7.64-.11-11-.33-31.65-2.15-56-11.38-82.71-24.57a624.77,624.77,0,0,1-99.32-61.73A164.49,164.49,0,0,1,57.56,356c-1.65-10.82-2.89-21.65-3.68-32.21a418.06,418.06,0,0,1,11.93-135.4c2.52-9.91,5.54-20.11,9-30.31a146.78,146.78,0,0,1,28.67-49.76c1.09-1.26,27.19-31.14,71.85-48.8,22.68-8.92,70.86-18,143.19-27a2155.67,2155.67,0,0,1,529.67,0c72.48,9,120.65,18.11,143.16,27,43.9,17.34,69.15,45.64,71.91,48.84a146.72,146.72,0,0,1,28.65,49.73c3.34,9.85,6.36,20,9,30.29l0,0a417.78,417.78,0,0,1,11.95,72.38c.77,10.34,1.16,20.87,1.16,31.31A424.83,424.83,0,0,1,1109.15,356Zm41.38,26.32a13.39,13.39,0,0,1-13.4,13.39h-21.85a181.68,181.68,0,0,0,9.85-37.26,440.35,440.35,0,0,0,5-66.34c0-10.84-.41-21.78-1.21-32.52a435.33,435.33,0,0,0-9.94-65.1h18.08a13.46,13.46,0,0,1,13.42,13.42Z"/></g></g></svg>